<?xml version="1.0" standalone="no"?>
<!DOCTYPE svg PUBLIC "-//W3C//DTD SVG 20010904//EN"
 "http://www.w3.org/TR/2001/REC-SVG-20010904/DTD/svg10.dtd">
<svg version="1.0" xmlns="http://www.w3.org/2000/svg"
 width="1224.000000pt" height="1224.000000pt" viewBox="0 0 1224.000000 1224.000000"
 preserveAspectRatio="xMidYMid meet">
<metadata>
Created by potrace 1.14, written by Peter Selinger 2001-2017
</metadata>
<g transform="translate(0.000000,1224.000000) scale(0.100000,-0.100000)"
fill="#000000" stroke="none">
<path d="M11150 10947 c-14 -6 -38 -27 -55 -45 -16 -19 -46 -42 -66 -53 -21
-10 -44 -26 -53 -35 -9 -9 -22 -17 -29 -18 -28 -6 -56 -22 -117 -69 -36 -27
-83 -58 -105 -67 -22 -10 -49 -26 -60 -37 -11 -10 -41 -29 -66 -43 -25 -14
-79 -47 -120 -74 -81 -54 -213 -118 -223 -109 -3 4 -6 1 -6 -5 0 -7 -7 -12
-17 -12 -9 0 -39 -11 -67 -24 -28 -13 -69 -31 -91 -39 -22 -8 -66 -27 -97 -41
-31 -14 -62 -26 -68 -26 -6 0 -26 -11 -44 -25 -18 -14 -35 -23 -37 -21 -2 3
-40 -4 -84 -15 -44 -11 -96 -24 -115 -29 -108 -27 -148 -39 -175 -54 -18 -10
-50 -15 -80 -15 -28 1 -61 -4 -74 -10 -27 -15 -145 -51 -181 -56 -54 -7 -93
-17 -135 -34 -16 -7 -37 -14 -45 -16 -8 -2 -30 -8 -47 -14 -18 -5 -33 -8 -33
-6 0 2 -17 -3 -37 -12 -108 -45 -97 -42 -188 -53 -72 -8 -150 -36 -265 -95
-36 -19 -94 -45 -129 -59 -36 -14 -72 -32 -80 -39 -9 -7 -34 -19 -56 -26 -22
-8 -57 -25 -77 -38 -21 -13 -38 -20 -38 -17 0 4 -6 2 -12 -3 -7 -6 -51 -31
-98 -56 -139 -73 -151 -81 -178 -104 -13 -13 -40 -28 -58 -35 -19 -7 -34 -15
-34 -19 0 -14 -78 -86 -121 -111 -26 -15 -54 -40 -64 -55 -35 -53 -98 -112
-138 -128 -53 -21 -66 -33 -341 -289 -27 -25 -53 -46 -58 -46 -10 0 -248 -241
-248 -252 0 -9 -140 -151 -144 -147 -3 3 2 27 10 54 17 55 18 60 30 125 4 25
8 47 9 50 0 3 4 23 9 45 4 22 20 76 36 120 15 44 28 82 28 85 0 17 36 127 44
137 6 7 12 30 15 50 7 57 23 113 46 163 11 25 22 54 24 65 7 43 13 72 23 115
7 25 13 56 16 70 7 46 10 55 37 111 15 31 27 64 27 74 0 19 50 118 63 123 4 2
7 10 7 17 0 8 6 18 13 22 8 4 27 28 43 53 15 25 39 58 52 74 21 26 95 162 97
177 0 3 19 30 43 61 23 30 42 58 42 61 0 8 43 71 61 90 8 8 39 45 69 81 30 37
71 77 90 88 19 12 40 26 45 32 23 25 76 57 85 51 6 -3 10 -16 10 -28 0 -13 7
-50 16 -82 8 -33 17 -68 19 -77 9 -43 51 -98 76 -98 15 0 25 15 46 70 11 29
11 208 -1 261 -18 83 -110 153 -191 145 -44 -4 -131 -52 -177 -98 -10 -10 -22
-19 -28 -19 -5 -1 -14 -2 -20 -3 -5 0 -19 -9 -30 -18 -11 -10 -23 -18 -26 -18
-8 0 -25 -18 -79 -84 -26 -33 -60 -72 -76 -89 -16 -16 -29 -35 -29 -41 0 -6
-13 -26 -29 -43 -16 -18 -26 -34 -23 -37 3 -3 0 -6 -6 -6 -7 0 -12 -5 -12 -11
0 -6 -9 -24 -21 -40 -11 -16 -18 -29 -14 -29 11 0 -76 -145 -112 -185 -36 -41
-103 -134 -103 -145 0 -5 -4 -10 -10 -10 -5 0 -10 -4 -10 -9 0 -5 -14 -32 -30
-58 -17 -27 -33 -62 -36 -78 -3 -16 -11 -33 -17 -37 -7 -4 -9 -8 -4 -8 4 0 1
-16 -7 -35 -9 -20 -15 -36 -15 -38 0 -1 -5 -15 -11 -32 -6 -16 -14 -43 -17
-60 -3 -16 -10 -35 -14 -41 -5 -6 -7 -13 -4 -16 3 -2 -3 -31 -14 -64 -10 -32
-21 -75 -25 -94 -6 -33 -18 -76 -62 -225 -10 -33 -17 -64 -16 -69 2 -4 -2 -13
-7 -20 -6 -7 -12 -27 -15 -46 -7 -57 -17 -104 -27 -125 -4 -11 -17 -44 -27
-74 -10 -30 -23 -56 -29 -58 -12 -4 -30 37 -38 92 -6 41 -8 55 -19 113 -4 18
-8 72 -11 120 -4 88 -14 192 -21 221 -2 9 -8 34 -14 56 -6 22 -13 55 -16 74
-2 19 -9 53 -14 78 -6 24 -13 60 -16 81 -3 20 -10 44 -15 53 -14 27 -37 101
-45 144 -4 22 -12 51 -20 65 -10 21 -40 122 -48 165 -5 24 -29 91 -37 100 -4
6 -10 24 -13 40 -2 17 -5 30 -6 30 -1 0 -3 7 -5 15 -2 8 -15 50 -29 92 -13 42
-22 79 -19 82 3 3 -4 17 -14 33 -11 15 -30 51 -43 78 -13 28 -35 64 -51 80
-15 17 -41 57 -59 90 -17 33 -37 65 -44 70 -6 6 -19 26 -29 46 -18 39 -88 106
-126 120 -24 10 -86 4 -125 -11 -49 -19 -124 -134 -152 -234 -26 -89 -31 -124
-22 -140 8 -14 12 -14 36 -2 30 16 92 73 92 84 0 4 16 24 35 44 19 20 35 39
35 42 0 3 9 21 21 40 20 34 22 35 43 21 26 -17 207 -373 227 -445 7 -25 14
-49 15 -55 2 -5 5 -19 8 -30 2 -11 18 -71 35 -132 16 -62 27 -113 23 -113 -3
0 -1 -5 6 -12 7 -7 12 -21 12 -32 0 -12 8 -41 16 -66 9 -25 18 -58 20 -75 2
-16 10 -48 18 -70 25 -73 45 -179 47 -255 1 -41 6 -80 11 -87 5 -6 6 -24 2
-39 -9 -36 -9 -92 0 -164 13 -113 16 -148 22 -273 3 -70 8 -137 10 -150 3 -12
7 -42 10 -67 3 -25 8 -58 13 -75 13 -49 3 -221 -14 -235 -7 -6 -24 3 -49 26
-21 20 -56 46 -77 60 -35 22 -58 39 -93 69 -6 6 -27 19 -46 30 -84 46 -210
143 -271 206 -36 38 -69 69 -75 69 -5 0 -39 28 -75 63 -69 64 -209 192 -263
239 -16 14 -42 29 -56 31 -23 5 -110 82 -155 138 -11 14 -41 38 -67 55 -26 16
-47 32 -48 37 0 11 -78 79 -108 94 -15 8 -40 24 -57 37 -16 12 -37 26 -45 30
-8 4 -42 22 -75 40 -114 64 -446 226 -462 226 -6 0 -43 18 -83 40 -40 22 -77
40 -81 40 -5 0 -33 11 -63 25 -34 16 -79 26 -123 29 -45 3 -93 15 -143 36 -41
17 -86 33 -100 34 -14 2 -54 14 -90 26 -36 12 -76 24 -90 26 -14 3 -48 11 -77
19 -28 8 -61 15 -72 15 -12 0 -33 7 -46 16 -13 9 -32 17 -42 19 -10 2 -19 4
-20 5 -8 6 -51 5 -71 -2 -12 -4 -22 -4 -22 0 0 6 -79 43 -100 48 -67 13 -87
18 -95 23 -5 3 -15 6 -22 7 -7 1 -42 10 -79 19 -37 9 -75 18 -83 20 -46 9 -71
18 -71 25 0 7 -20 16 -56 25 -7 2 -40 16 -75 33 -35 16 -86 38 -114 47 -27 10
-54 22 -60 25 -5 4 -28 13 -50 20 -42 13 -186 80 -195 89 -3 4 -22 15 -43 26
-21 11 -52 32 -69 47 -17 15 -34 26 -37 25 -8 -3 -79 41 -114 70 -16 13 -36
23 -46 23 -9 0 -26 8 -37 18 -48 42 -106 84 -150 107 -27 14 -55 31 -64 38 -8
7 -28 19 -43 27 -16 8 -41 26 -57 41 -65 62 -117 80 -157 54 -48 -32 -48 -53
-2 -140 23 -44 47 -84 54 -90 6 -5 17 -32 24 -59 7 -27 21 -60 32 -74 10 -14
19 -29 19 -35 0 -6 9 -31 21 -56 31 -67 37 -83 45 -111 3 -14 17 -39 29 -56
13 -16 30 -52 38 -80 20 -64 52 -135 75 -165 17 -21 35 -78 37 -116 0 -6 4
-15 8 -19 4 -4 7 -16 7 -26 0 -10 4 -18 9 -18 5 0 12 -11 15 -25 3 -13 16 -33
27 -44 12 -11 16 -21 10 -25 -6 -4 -1 -24 13 -54 30 -60 49 -104 52 -118 7
-35 79 -148 134 -212 6 -7 19 -34 27 -60 9 -26 19 -51 23 -57 4 -5 16 -35 27
-65 12 -30 25 -64 29 -75 4 -11 8 -22 9 -25 1 -3 14 -32 29 -65 30 -66 59
-144 83 -220 8 -27 23 -68 33 -90 36 -81 100 -267 100 -291 0 -13 9 -50 20
-82 11 -31 23 -73 26 -92 3 -19 12 -48 19 -65 7 -16 17 -43 23 -60 6 -16 13
-39 18 -50 4 -11 9 -28 10 -38 2 -9 18 -47 34 -84 17 -37 33 -83 36 -101 3
-18 12 -48 20 -67 8 -19 12 -35 9 -35 -3 0 -1 -9 5 -19 5 -11 13 -37 16 -58 3
-21 13 -56 21 -78 8 -22 22 -60 30 -85 8 -25 19 -53 24 -62 5 -10 9 -27 9 -38
0 -11 5 -20 10 -20 6 0 10 -7 10 -15 0 -8 4 -23 9 -33 5 -9 29 -57 54 -107 24
-49 65 -122 90 -161 25 -39 52 -84 59 -100 6 -16 27 -50 45 -75 18 -26 40 -66
48 -90 8 -24 21 -55 27 -69 15 -29 87 -138 105 -158 7 -7 13 -17 13 -22 0 -5
8 -11 18 -14 9 -4 33 -29 52 -57 35 -51 97 -130 125 -160 8 -9 15 -20 15 -25
0 -9 68 -75 207 -202 34 -31 64 -58 67 -59 45 -18 136 -70 169 -96 23 -19 60
-38 82 -42 22 -4 48 -15 58 -26 12 -12 31 -19 57 -19 21 0 41 -4 44 -9 16 -25
95 -53 156 -56 36 -2 65 -4 65 -5 0 -1 16 -3 35 -6 43 -5 60 -21 34 -30 -10
-4 -21 -10 -24 -14 -3 -4 -33 -14 -67 -24 -35 -9 -81 -29 -103 -43 -22 -15
-47 -28 -54 -29 -38 -5 -155 -71 -186 -104 -45 -47 -93 -80 -118 -80 -23 0
-190 -162 -212 -206 -22 -44 -73 -117 -91 -131 -9 -7 -19 -24 -23 -37 -3 -14
-20 -55 -37 -93 -17 -37 -37 -82 -45 -100 -8 -17 -11 -38 -8 -46 3 -8 1 -18
-4 -21 -6 -3 -8 -15 -5 -26 3 -11 2 -28 -2 -37 -5 -10 -10 -25 -12 -33 -2 -8
-6 -242 -8 -520 -5 -470 -9 -656 -20 -755 -2 -22 -7 -101 -10 -175 -4 -74 -8
-137 -10 -141 -4 -5 -12 -59 -19 -125 -2 -17 -6 -35 -9 -40 -3 -5 -6 -32 -8
-59 -1 -28 -9 -68 -17 -90 -8 -22 -14 -51 -13 -64 0 -13 -3 -29 -8 -35 -18
-22 -58 -152 -60 -196 -1 -25 -11 -71 -21 -103 -19 -56 -24 -83 -35 -177 -2
-25 -7 -56 -10 -70 -3 -14 -7 -38 -10 -55 -9 -63 -16 -92 -36 -149 -11 -33
-18 -70 -14 -83 5 -22 -22 -76 -46 -93 -12 -8 -31 -61 -35 -95 -5 -34 -30 -91
-44 -100 -6 -4 -8 -10 -6 -14 6 -9 -35 -141 -63 -203 -28 -61 -34 -133 -14
-153 8 -8 11 -20 7 -27 -6 -10 -5 -10 7 -1 9 7 38 12 65 11 30 -1 63 5 86 16
20 10 42 18 50 20 7 1 18 4 23 8 6 3 26 7 45 9 19 2 40 6 45 10 6 4 67 26 135
49 144 49 198 73 229 101 12 12 37 23 54 26 26 4 170 82 212 114 37 29 64 58
79 84 10 17 40 43 67 60 27 16 49 33 49 37 0 4 13 14 29 23 16 8 32 24 36 35
7 21 76 60 107 60 9 0 22 8 27 18 5 10 27 27 48 38 21 10 43 24 49 29 7 6 29
24 49 40 20 17 56 47 78 68 23 20 47 37 54 37 6 0 14 9 18 19 6 21 87 91 104
91 19 0 54 23 102 66 25 23 62 49 82 59 20 9 37 22 37 29 1 11 120 106 135
106 4 0 29 19 55 43 181 164 213 192 221 190 5 -2 21 13 36 33 15 19 48 46 73
60 25 14 58 44 74 68 21 31 41 48 68 57 21 7 38 15 38 18 0 3 15 22 34 41 18
20 41 50 50 68 9 17 30 39 47 47 36 19 196 181 205 207 3 10 10 18 15 18 5 0
9 7 9 15 0 8 14 22 32 31 39 20 121 107 145 153 10 19 25 43 33 52 22 26 33
41 54 74 11 16 23 34 28 40 37 45 81 111 112 170 21 39 46 79 55 90 28 32 84
164 86 204 7 106 38 136 43 41 3 -57 43 -154 104 -252 18 -29 42 -71 53 -93
11 -22 41 -68 67 -101 27 -34 48 -66 48 -72 0 -6 3 -12 8 -14 8 -3 82 -105 82
-113 0 -6 10 -20 45 -59 11 -12 25 -31 31 -41 6 -11 33 -34 60 -53 27 -18 53
-43 59 -55 11 -24 16 -30 129 -146 44 -44 87 -83 97 -86 10 -3 32 -28 49 -55
41 -64 76 -98 125 -121 24 -12 50 -35 65 -59 14 -23 43 -49 70 -64 25 -14 55
-38 68 -55 12 -17 27 -31 33 -31 6 0 17 -6 24 -13 8 -6 49 -43 91 -82 43 -38
93 -84 112 -101 18 -17 45 -38 60 -45 34 -18 68 -45 113 -90 20 -20 46 -40 59
-44 13 -4 44 -26 69 -49 50 -46 115 -89 123 -81 3 3 25 -15 49 -41 24 -25 73
-70 109 -99 36 -29 83 -69 105 -89 22 -20 45 -36 51 -36 6 0 29 -13 51 -29 46
-34 102 -64 123 -67 8 -2 22 -13 30 -26 8 -12 24 -29 34 -38 11 -8 29 -25 41
-37 12 -13 27 -23 32 -23 5 0 30 -21 54 -46 73 -76 106 -105 159 -140 29 -19
54 -34 56 -34 2 0 21 -10 42 -23 20 -12 48 -24 62 -25 14 -2 39 -15 57 -28 17
-13 36 -24 42 -24 6 0 11 -4 11 -9 0 -4 20 -14 45 -21 25 -7 48 -17 51 -22 3
-4 9 -6 14 -3 5 3 51 -10 102 -29 91 -33 129 -46 152 -50 47 -9 83 -20 94 -28
6 -6 12 -7 12 -3 0 4 7 2 15 -5 12 -10 15 -10 15 1 0 9 3 10 8 4 4 -6 22 -12
40 -13 18 -1 36 -3 40 -4 17 -5 50 14 55 31 7 29 -11 121 -31 158 -7 13 -22
53 -33 90 -11 38 -28 84 -38 103 -16 31 -22 52 -38 133 -2 11 -17 38 -34 61
-22 31 -33 61 -40 110 -5 37 -16 81 -25 99 -9 17 -18 47 -19 67 -2 19 -5 46
-9 60 -10 43 -23 127 -30 195 -3 22 -5 40 -6 40 -1 0 -3 9 -4 20 -2 11 -10 38
-19 60 -8 22 -20 74 -27 115 -7 41 -15 80 -18 85 -4 6 -8 18 -9 28 -2 10 -8
28 -15 40 -7 12 -13 31 -14 42 -1 11 -7 40 -14 65 -7 25 -16 72 -21 105 -5 33
-13 85 -19 115 -5 30 -12 89 -15 130 -2 41 -7 109 -10 150 -3 41 -7 98 -10
125 -7 80 -17 521 -20 900 -2 193 -5 360 -9 373 -3 13 -8 33 -12 45 -4 12 -8
45 -9 72 -2 43 -34 134 -66 185 -9 15 -13 24 -31 73 -6 15 -17 27 -24 27 -8 0
-14 5 -14 12 0 6 -11 25 -24 42 -13 17 -33 50 -45 73 -26 52 -186 213 -212
213 -24 0 -106 56 -126 86 -15 23 -118 78 -195 103 -21 7 -38 16 -38 21 0 7
-56 35 -72 35 -3 0 -10 3 -14 8 -4 4 -14 7 -23 7 -9 0 -36 10 -61 21 l-45 21
29 13 c16 6 60 13 98 14 73 2 139 22 173 51 11 10 34 17 50 16 17 -1 47 10 70
24 22 14 51 27 65 28 14 2 41 17 60 33 35 29 146 92 154 87 5 -3 52 39 77 68
20 23 59 56 59 49 0 -6 45 31 71 59 11 11 19 23 19 27 0 4 8 10 18 14 9 3 28
23 41 45 14 22 40 57 58 77 19 21 48 58 65 82 17 24 38 52 47 61 9 9 30 34 46
55 17 22 48 62 70 90 22 28 49 66 59 85 11 19 26 41 33 48 8 9 9 20 3 36 -7
19 -1 32 36 79 25 31 47 65 49 76 4 23 50 96 83 133 13 14 24 29 23 32 -1 9 9
39 19 56 24 41 101 208 115 250 1 3 5 19 9 35 4 17 16 49 27 72 10 23 21 61
25 85 6 44 28 118 43 147 5 9 11 34 13 56 3 22 10 49 16 60 17 31 37 82 72
185 17 52 36 104 40 115 11 28 59 194 64 225 10 53 15 69 27 92 7 13 11 24 10
26 -5 4 30 95 40 106 5 6 9 16 9 24 0 8 7 28 14 45 8 18 31 81 51 141 21 61
49 135 63 165 14 31 26 58 27 61 0 3 22 61 49 130 29 72 67 148 90 180 66 88
94 136 111 187 9 26 29 73 44 103 15 30 26 60 24 66 -2 6 12 37 32 69 19 32
36 65 36 72 1 7 2 22 3 32 0 11 4 23 9 27 4 4 7 13 7 21 0 7 11 31 24 52 39
61 80 164 85 213 1 4 15 22 31 40 17 18 30 42 30 54 0 20 11 48 51 127 10 22
19 45 19 52 0 7 6 18 14 24 7 6 21 37 31 69 10 31 23 64 30 72 19 24 75 126
75 138 0 6 -8 13 -17 15 -17 4 -17 5 0 6 25 2 21 27 -9 50 -30 23 -57 25 -94
8z"/>
</g>
</svg>
